Format/Info                      : Audio Video Interleave
File size                        : 1.31 GiB
Duration                         : 1h 35mn
Overall bit rate                 : 1 957 Kbps
Writing application              : VirtualDubMod 1.5.10.3 | www.virtualdub-fr.org || (build 2550/release)
Writing library                  : VirtualDubMod build 2550/release

Video
ID                               : 0
Format                           : MPEG-4 Visual
Format profile                   : Advanced Simple@L5
Format settings, BVOP            : Yes
Format settings, QPel            : No
Format settings, GMC             : No warppoints
Format settings, Matrix          : Default (MPEG)
Muxing mode                      : Packed bitstream
Codec ID                         : XVID
Codec ID/Hint                    : XviD
Duration                         : 1h 35mn
Bit rate                         : 1 819 Kbps
Width                            : 720 pixels
Height                           : 304 pixels
Display aspect ratio             : 2.35:1
Frame rate                       : 25.000 fps
Color space                      : YUV
Chroma subsampling               : 4:2:0
Bit depth                        : 8 bits
Scan type                        : Progressive
Bits/(Pixel*Frame)               : 0.332
Stream size                      : 1.22 GiB (93%)
Writing library                  : XviD 61

Audio
ID                               : 1
Format                           : MPEG Audio
Format version                   : Version 1
Format profile                   : Layer 3
Mode                             : Joint stereo
Mode extension                   : MS Stereo
Codec ID                         : 55
Codec ID/Hint                    : MP3
Duration                         : 1h 35mn
Bit rate mode                    : Constant
Bit rate                         : 128 Kbps
Channel(s)                       : 2 channels
Sampling rate                    : 44.1 KHz
Stream size                      : 87.8 MiB (7%)
Alignment                        : Split accross interleaves
Interleave, duration             : 40 ms (1.00 video frame)
Interleave, preload duration     : 500 ms
Writing library                  : LAME3.98.4



 
http://www.imdb.com/title/tt1591095/







Users: 7.4/10 (4,237 votes) 118 reviews | Critics: 127 reviews Metascore: 52/100 (based on 30 reviews from Metacritic.com)

A family looks to prevent evil spirits from trapping their comatose child in a realm called The Further.
Director:
James Wan
Writer:
Leigh Whannell
Stars:
Patrick Wilson, Rose Byrne and Ty Simpkins 







 
http://img199.imageshack.us/img199/6061/vlcsnap2011042312h12m03.png
 
http://img859.imageshack.us/img859/7949/vlcsnap2011042312h12m21.png
 
http://img839.imageshack.us/img839/8416/vlcsnap2011042312h11m58.png


VIDEO: .......... Astral.2010.D.DVD.ELEKTRI4KA ...............Thanks 

AUDIO: .......... IMAGiNE .............................................Thanks 


Honestly cant say done a great deal with this just a few filters slight saturation level and levels filter ...Nice work IMAGiNE 

Enjoy !



Greetz to Imagine ,Flawl3ss,DiLLoN,BDK,NOiR,TOXiCiNK,THC,Ez,Rx,Boobyblue












